<svg width="437" height="358" viewBox="0 0 437 358" fill="none" xmlns="http://www.w3.org/2000/svg">
<g filter="url(#filter0_f_67_82)">
<rect x="150" y="150" width="137" height="145" fill="#279832"/>
</g>
<path d="M116.15 170V135H132.05C135.85 135 139.2 135.733 142.1 137.2C145 138.633 147.267 140.65 148.9 143.25C150.533 145.85 151.35 148.933 151.35 152.5C151.35 156.033 150.533 159.117 148.9 161.75C147.267 164.35 145 166.383 142.1 167.85C139.2 169.283 135.85 170 132.05 170H116.15ZM124.25 163.35H131.65C133.983 163.35 136 162.917 137.7 162.05C139.433 161.15 140.767 159.883 141.7 158.25C142.667 156.617 143.15 154.7 143.15 152.5C143.15 150.267 142.667 148.35 141.7 146.75C140.767 145.117 139.433 143.867 137.7 143C136 142.1 133.983 141.65 131.65 141.65H124.25V163.35ZM169.909 149.1H186.759V155.4H169.909V149.1ZM170.509 163.5H189.559V170H162.459V135H188.909V141.5H170.509V163.5ZM201.004 170V135H218.104C222.504 135 225.804 135.833 228.004 137.5C230.237 139.167 231.354 141.367 231.354 144.1C231.354 145.933 230.904 147.533 230.004 148.9C229.104 150.233 227.87 151.267 226.304 152C224.737 152.733 222.937 153.1 220.904 153.1L221.854 151.05C224.054 151.05 226.004 151.417 227.704 152.15C229.404 152.85 230.72 153.9 231.654 155.3C232.62 156.7 233.104 158.417 233.104 160.45C233.104 163.45 231.92 165.8 229.554 167.5C227.187 169.167 223.704 170 219.104 170H201.004ZM209.054 163.9H218.504C220.604 163.9 222.187 163.567 223.254 162.9C224.354 162.2 224.904 161.1 224.904 159.6C224.904 158.133 224.354 157.05 223.254 156.35C222.187 155.617 220.604 155.25 218.504 155.25H208.454V149.35H217.104C219.07 149.35 220.57 149.017 221.604 148.35C222.67 147.65 223.204 146.6 223.204 145.2C223.204 143.833 222.67 142.817 221.604 142.15C220.57 141.45 219.07 141.1 217.104 141.1H209.054V163.9ZM259.786 170.6C254.819 170.6 250.936 169.217 248.136 166.45C245.336 163.683 243.936 159.733 243.936 154.6V135H252.036V154.3C252.036 157.633 252.719 160.033 254.086 161.5C255.453 162.967 257.369 163.7 259.836 163.7C262.303 163.7 264.219 162.967 265.586 161.5C266.953 160.033 267.636 157.633 267.636 154.3V135H275.636V154.6C275.636 159.733 274.236 163.683 271.436 166.45C268.636 169.217 264.753 170.6 259.786 170.6ZM305.54 170.6C302.774 170.6 300.224 170.167 297.89 169.3C295.59 168.4 293.574 167.133 291.84 165.5C290.14 163.867 288.807 161.95 287.84 159.75C286.907 157.55 286.44 155.133 286.44 152.5C286.44 149.867 286.907 147.45 287.84 145.25C288.807 143.05 290.157 141.133 291.89 139.5C293.624 137.867 295.657 136.617 297.99 135.75C300.324 134.85 302.89 134.4 305.69 134.4C308.79 134.4 311.574 134.917 314.04 135.95C316.54 136.983 318.64 138.483 320.34 140.45L315.14 145.25C313.874 143.917 312.49 142.933 310.99 142.3C309.49 141.633 307.857 141.3 306.09 141.3C304.39 141.3 302.84 141.567 301.44 142.1C300.04 142.633 298.824 143.4 297.79 144.4C296.79 145.4 296.007 146.583 295.44 147.95C294.907 149.317 294.64 150.833 294.64 152.5C294.64 154.133 294.907 155.633 295.44 157C296.007 158.367 296.79 159.567 297.79 160.6C298.824 161.6 300.024 162.367 301.39 162.9C302.79 163.433 304.324 163.7 305.99 163.7C307.59 163.7 309.14 163.45 310.64 162.95C312.174 162.417 313.657 161.533 315.09 160.3L319.69 166.15C317.79 167.583 315.574 168.683 313.04 169.45C310.54 170.217 308.04 170.6 305.54 170.6ZM312.29 165.1V151.95H319.69V166.15L312.29 165.1Z" fill="url(#paint0_linear_67_82)"/>
<path d="M116.15 205V170H132.05C135.85 170 139.2 170.733 142.1 172.2C145 173.633 147.267 175.65 148.9 178.25C150.533 180.85 151.35 183.933 151.35 187.5C151.35 191.033 150.533 194.117 148.9 196.75C147.267 199.35 145 201.383 142.1 202.85C139.2 204.283 135.85 205 132.05 205H116.15ZM124.25 198.35H131.65C133.983 198.35 136 197.917 137.7 197.05C139.433 196.15 140.767 194.883 141.7 193.25C142.667 191.617 143.15 189.7 143.15 187.5C143.15 185.267 142.667 183.35 141.7 181.75C140.767 180.117 139.433 178.867 137.7 178C136 177.1 133.983 176.65 131.65 176.65H124.25V198.35ZM169.909 184.1H186.759V190.4H169.909V184.1ZM170.509 198.5H189.559V205H162.459V170H188.909V176.5H170.509V198.5ZM201.004 205V170H218.104C222.504 170 225.804 170.833 228.004 172.5C230.237 174.167 231.354 176.367 231.354 179.1C231.354 180.933 230.904 182.533 230.004 183.9C229.104 185.233 227.87 186.267 226.304 187C224.737 187.733 222.937 188.1 220.904 188.1L221.854 186.05C224.054 186.05 226.004 186.417 227.704 187.15C229.404 187.85 230.72 188.9 231.654 190.3C232.62 191.7 233.104 193.417 233.104 195.45C233.104 198.45 231.92 200.8 229.554 202.5C227.187 204.167 223.704 205 219.104 205H201.004ZM209.054 198.9H218.504C220.604 198.9 222.187 198.567 223.254 197.9C224.354 197.2 224.904 196.1 224.904 194.6C224.904 193.133 224.354 192.05 223.254 191.35C222.187 190.617 220.604 190.25 218.504 190.25H208.454V184.35H217.104C219.07 184.35 220.57 184.017 221.604 183.35C222.67 182.65 223.204 181.6 223.204 180.2C223.204 178.833 222.67 177.817 221.604 177.15C220.57 176.45 219.07 176.1 217.104 176.1H209.054V198.9ZM259.786 205.6C254.819 205.6 250.936 204.217 248.136 201.45C245.336 198.683 243.936 194.733 243.936 189.6V170H252.036V189.3C252.036 192.633 252.719 195.033 254.086 196.5C255.453 197.967 257.369 198.7 259.836 198.7C262.303 198.7 264.219 197.967 265.586 196.5C266.953 195.033 267.636 192.633 267.636 189.3V170H275.636V189.6C275.636 194.733 274.236 198.683 271.436 201.45C268.636 204.217 264.753 205.6 259.786 205.6ZM305.54 205.6C302.774 205.6 300.224 205.167 297.89 204.3C295.59 203.4 293.574 202.133 291.84 200.5C290.14 198.867 288.807 196.95 287.84 194.75C286.907 192.55 286.44 190.133 286.44 187.5C286.44 184.867 286.907 182.45 287.84 180.25C288.807 178.05 290.157 176.133 291.89 174.5C293.624 172.867 295.657 171.617 297.99 170.75C300.324 169.85 302.89 169.4 305.69 169.4C308.79 169.4 311.574 169.917 314.04 170.95C316.54 171.983 318.64 173.483 320.34 175.45L315.14 180.25C313.874 178.917 312.49 177.933 310.99 177.3C309.49 176.633 307.857 176.3 306.09 176.3C304.39 176.3 302.84 176.567 301.44 177.1C300.04 177.633 298.824 178.4 297.79 179.4C296.79 180.4 296.007 181.583 295.44 182.95C294.907 184.317 294.64 185.833 294.64 187.5C294.64 189.133 294.907 190.633 295.44 192C296.007 193.367 296.79 194.567 297.79 195.6C298.824 196.6 300.024 197.367 301.39 197.9C302.79 198.433 304.324 198.7 305.99 198.7C307.59 198.7 309.14 198.45 310.64 197.95C312.174 197.417 313.657 196.533 315.09 195.3L319.69 201.15C317.79 202.583 315.574 203.683 313.04 204.45C310.54 205.217 308.04 205.6 305.54 205.6ZM312.29 200.1V186.95H319.69V201.15L312.29 200.1Z" fill="url(#paint1_linear_67_82)" fill-opacity="0.8"/>
<path d="M116.15 240V205H132.05C135.85 205 139.2 205.733 142.1 207.2C145 208.633 147.267 210.65 148.9 213.25C150.533 215.85 151.35 218.933 151.35 222.5C151.35 226.033 150.533 229.117 148.9 231.75C147.267 234.35 145 236.383 142.1 237.85C139.2 239.283 135.85 240 132.05 240H116.15ZM124.25 233.35H131.65C133.983 233.35 136 232.917 137.7 232.05C139.433 231.15 140.767 229.883 141.7 228.25C142.667 226.617 143.15 224.7 143.15 222.5C143.15 220.267 142.667 218.35 141.7 216.75C140.767 215.117 139.433 213.867 137.7 213C136 212.1 133.983 211.65 131.65 211.65H124.25V233.35ZM169.909 219.1H186.759V225.4H169.909V219.1ZM170.509 233.5H189.559V240H162.459V205H188.909V211.5H170.509V233.5ZM201.004 240V205H218.104C222.504 205 225.804 205.833 228.004 207.5C230.237 209.167 231.354 211.367 231.354 214.1C231.354 215.933 230.904 217.533 230.004 218.9C229.104 220.233 227.87 221.267 226.304 222C224.737 222.733 222.937 223.1 220.904 223.1L221.854 221.05C224.054 221.05 226.004 221.417 227.704 222.15C229.404 222.85 230.72 223.9 231.654 225.3C232.62 226.7 233.104 228.417 233.104 230.45C233.104 233.45 231.92 235.8 229.554 237.5C227.187 239.167 223.704 240 219.104 240H201.004ZM209.054 233.9H218.504C220.604 233.9 222.187 233.567 223.254 232.9C224.354 232.2 224.904 231.1 224.904 229.6C224.904 228.133 224.354 227.05 223.254 226.35C222.187 225.617 220.604 225.25 218.504 225.25H208.454V219.35H217.104C219.07 219.35 220.57 219.017 221.604 218.35C222.67 217.65 223.204 216.6 223.204 215.2C223.204 213.833 222.67 212.817 221.604 212.15C220.57 211.45 219.07 211.1 217.104 211.1H209.054V233.9ZM259.786 240.6C254.819 240.6 250.936 239.217 248.136 236.45C245.336 233.683 243.936 229.733 243.936 224.6V205H252.036V224.3C252.036 227.633 252.719 230.033 254.086 231.5C255.453 232.967 257.369 233.7 259.836 233.7C262.303 233.7 264.219 232.967 265.586 231.5C266.953 230.033 267.636 227.633 267.636 224.3V205H275.636V224.6C275.636 229.733 274.236 233.683 271.436 236.45C268.636 239.217 264.753 240.6 259.786 240.6ZM305.54 240.6C302.774 240.6 300.224 240.167 297.89 239.3C295.59 238.4 293.574 237.133 291.84 235.5C290.14 233.867 288.807 231.95 287.84 229.75C286.907 227.55 286.44 225.133 286.44 222.5C286.44 219.867 286.907 217.45 287.84 215.25C288.807 213.05 290.157 211.133 291.89 209.5C293.624 207.867 295.657 206.617 297.99 205.75C300.324 204.85 302.89 204.4 305.69 204.4C308.79 204.4 311.574 204.917 314.04 205.95C316.54 206.983 318.64 208.483 320.34 210.45L315.14 215.25C313.874 213.917 312.49 212.933 310.99 212.3C309.49 211.633 307.857 211.3 306.09 211.3C304.39 211.3 302.84 211.567 301.44 212.1C300.04 212.633 298.824 213.4 297.79 214.4C296.79 215.4 296.007 216.583 295.44 217.95C294.907 219.317 294.64 220.833 294.64 222.5C294.64 224.133 294.907 225.633 295.44 227C296.007 228.367 296.79 229.567 297.79 230.6C298.824 231.6 300.024 232.367 301.39 232.9C302.79 233.433 304.324 233.7 305.99 233.7C307.59 233.7 309.14 233.45 310.64 232.95C312.174 232.417 313.657 231.533 315.09 230.3L319.69 236.15C317.79 237.583 315.574 238.683 313.04 239.45C310.54 240.217 308.04 240.6 305.54 240.6ZM312.29 235.1V221.95H319.69V236.15L312.29 235.1Z" fill="url(#paint2_linear_67_82)" fill-opacity="0.6"/>
<path d="M116.15 275V240H132.05C135.85 240 139.2 240.733 142.1 242.2C145 243.633 147.267 245.65 148.9 248.25C150.533 250.85 151.35 253.933 151.35 257.5C151.35 261.033 150.533 264.117 148.9 266.75C147.267 269.35 145 271.383 142.1 272.85C139.2 274.283 135.85 275 132.05 275H116.15ZM124.25 268.35H131.65C133.983 268.35 136 267.917 137.7 267.05C139.433 266.15 140.767 264.883 141.7 263.25C142.667 261.617 143.15 259.7 143.15 257.5C143.15 255.267 142.667 253.35 141.7 251.75C140.767 250.117 139.433 248.867 137.7 248C136 247.1 133.983 246.65 131.65 246.65H124.25V268.35ZM169.909 254.1H186.759V260.4H169.909V254.1ZM170.509 268.5H189.559V275H162.459V240H188.909V246.5H170.509V268.5ZM201.004 275V240H218.104C222.504 240 225.804 240.833 228.004 242.5C230.237 244.167 231.354 246.367 231.354 249.1C231.354 250.933 230.904 252.533 230.004 253.9C229.104 255.233 227.87 256.267 226.304 257C224.737 257.733 222.937 258.1 220.904 258.1L221.854 256.05C224.054 256.05 226.004 256.417 227.704 257.15C229.404 257.85 230.72 258.9 231.654 260.3C232.62 261.7 233.104 263.417 233.104 265.45C233.104 268.45 231.92 270.8 229.554 272.5C227.187 274.167 223.704 275 219.104 275H201.004ZM209.054 268.9H218.504C220.604 268.9 222.187 268.567 223.254 267.9C224.354 267.2 224.904 266.1 224.904 264.6C224.904 263.133 224.354 262.05 223.254 261.35C222.187 260.617 220.604 260.25 218.504 260.25H208.454V254.35H217.104C219.07 254.35 220.57 254.017 221.604 253.35C222.67 252.65 223.204 251.6 223.204 250.2C223.204 248.833 222.67 247.817 221.604 247.15C220.57 246.45 219.07 246.1 217.104 246.1H209.054V268.9ZM259.786 275.6C254.819 275.6 250.936 274.217 248.136 271.45C245.336 268.683 243.936 264.733 243.936 259.6V240H252.036V259.3C252.036 262.633 252.719 265.033 254.086 266.5C255.453 267.967 257.369 268.7 259.836 268.7C262.303 268.7 264.219 267.967 265.586 266.5C266.953 265.033 267.636 262.633 267.636 259.3V240H275.636V259.6C275.636 264.733 274.236 268.683 271.436 271.45C268.636 274.217 264.753 275.6 259.786 275.6ZM305.54 275.6C302.774 275.6 300.224 275.167 297.89 274.3C295.59 273.4 293.574 272.133 291.84 270.5C290.14 268.867 288.807 266.95 287.84 264.75C286.907 262.55 286.44 260.133 286.44 257.5C286.44 254.867 286.907 252.45 287.84 250.25C288.807 248.05 290.157 246.133 291.89 244.5C293.624 242.867 295.657 241.617 297.99 240.75C300.324 239.85 302.89 239.4 305.69 239.4C308.79 239.4 311.574 239.917 314.04 240.95C316.54 241.983 318.64 243.483 320.34 245.45L315.14 250.25C313.874 248.917 312.49 247.933 310.99 247.3C309.49 246.633 307.857 246.3 306.09 246.3C304.39 246.3 302.84 246.567 301.44 247.1C300.04 247.633 298.824 248.4 297.79 249.4C296.79 250.4 296.007 251.583 295.44 252.95C294.907 254.317 294.64 255.833 294.64 257.5C294.64 259.133 294.907 260.633 295.44 262C296.007 263.367 296.79 264.567 297.79 265.6C298.824 266.6 300.024 267.367 301.39 267.9C302.79 268.433 304.324 268.7 305.99 268.7C307.59 268.7 309.14 268.45 310.64 267.95C312.174 267.417 313.657 266.533 315.09 265.3L319.69 271.15C317.79 272.583 315.574 273.683 313.04 274.45C310.54 275.217 308.04 275.6 305.54 275.6ZM312.29 270.1V256.95H319.69V271.15L312.29 270.1Z" fill="url(#paint3_linear_67_82)" fill-opacity="0.4"/>
<path d="M116.15 310V275H132.05C135.85 275 139.2 275.733 142.1 277.2C145 278.633 147.267 280.65 148.9 283.25C150.533 285.85 151.35 288.933 151.35 292.5C151.35 296.033 150.533 299.117 148.9 301.75C147.267 304.35 145 306.383 142.1 307.85C139.2 309.283 135.85 310 132.05 310H116.15ZM124.25 303.35H131.65C133.983 303.35 136 302.917 137.7 302.05C139.433 301.15 140.767 299.883 141.7 298.25C142.667 296.617 143.15 294.7 143.15 292.5C143.15 290.267 142.667 288.35 141.7 286.75C140.767 285.117 139.433 283.867 137.7 283C136 282.1 133.983 281.65 131.65 281.65H124.25V303.35ZM169.909 289.1H186.759V295.4H169.909V289.1ZM170.509 303.5H189.559V310H162.459V275H188.909V281.5H170.509V303.5ZM201.004 310V275H218.104C222.504 275 225.804 275.833 228.004 277.5C230.237 279.167 231.354 281.367 231.354 284.1C231.354 285.933 230.904 287.533 230.004 288.9C229.104 290.233 227.87 291.267 226.304 292C224.737 292.733 222.937 293.1 220.904 293.1L221.854 291.05C224.054 291.05 226.004 291.417 227.704 292.15C229.404 292.85 230.72 293.9 231.654 295.3C232.62 296.7 233.104 298.417 233.104 300.45C233.104 303.45 231.92 305.8 229.554 307.5C227.187 309.167 223.704 310 219.104 310H201.004ZM209.054 303.9H218.504C220.604 303.9 222.187 303.567 223.254 302.9C224.354 302.2 224.904 301.1 224.904 299.6C224.904 298.133 224.354 297.05 223.254 296.35C222.187 295.617 220.604 295.25 218.504 295.25H208.454V289.35H217.104C219.07 289.35 220.57 289.017 221.604 288.35C222.67 287.65 223.204 286.6 223.204 285.2C223.204 283.833 222.67 282.817 221.604 282.15C220.57 281.45 219.07 281.1 217.104 281.1H209.054V303.9ZM259.786 310.6C254.819 310.6 250.936 309.217 248.136 306.45C245.336 303.683 243.936 299.733 243.936 294.6V275H252.036V294.3C252.036 297.633 252.719 300.033 254.086 301.5C255.453 302.967 257.369 303.7 259.836 303.7C262.303 303.7 264.219 302.967 265.586 301.5C266.953 300.033 267.636 297.633 267.636 294.3V275H275.636V294.6C275.636 299.733 274.236 303.683 271.436 306.45C268.636 309.217 264.753 310.6 259.786 310.6ZM305.54 310.6C302.774 310.6 300.224 310.167 297.89 309.3C295.59 308.4 293.574 307.133 291.84 305.5C290.14 303.867 288.807 301.95 287.84 299.75C286.907 297.55 286.44 295.133 286.44 292.5C286.44 289.867 286.907 287.45 287.84 285.25C288.807 283.05 290.157 281.133 291.89 279.5C293.624 277.867 295.657 276.617 297.99 275.75C300.324 274.85 302.89 274.4 305.69 274.4C308.79 274.4 311.574 274.917 314.04 275.95C316.54 276.983 318.64 278.483 320.34 280.45L315.14 285.25C313.874 283.917 312.49 282.933 310.99 282.3C309.49 281.633 307.857 281.3 306.09 281.3C304.39 281.3 302.84 281.567 301.44 282.1C300.04 282.633 298.824 283.4 297.79 284.4C296.79 285.4 296.007 286.583 295.44 287.95C294.907 289.317 294.64 290.833 294.64 292.5C294.64 294.133 294.907 295.633 295.44 297C296.007 298.367 296.79 299.567 297.79 300.6C298.824 301.6 300.024 302.367 301.39 302.9C302.79 303.433 304.324 303.7 305.99 303.7C307.59 303.7 309.14 303.45 310.64 302.95C312.174 302.417 313.657 301.533 315.09 300.3L319.69 306.15C317.79 307.583 315.574 308.683 313.04 309.45C310.54 310.217 308.04 310.6 305.54 310.6ZM312.29 305.1V291.95H319.69V306.15L312.29 305.1Z" fill="url(#paint4_linear_67_82)" fill-opacity="0.2"/>
<defs>
<filter id="filter0_f_67_82" x="0" y="0" width="437" height="445" filterUnits="userSpaceOnUse" color-interpolation-filters="sRGB">
<feFlood flood-opacity="0" result="BackgroundImageFix"/>
<feBlend mode="normal" in="SourceGraphic" in2="BackgroundImageFix" result="shape"/>
<feGaussianBlur stdDeviation="75" result="effect1_foregroundBlur_67_82"/>
</filter>
<linearGradient id="paint0_linear_67_82" x1="112" y1="122" x2="154.396" y2="242.616" gradientUnits="userSpaceOnUse">
<stop stop-color="#4FFF60"/>
<stop offset="1" stop-color="#00670A"/>
</linearGradient>
<linearGradient id="paint1_linear_67_82" x1="112" y1="157" x2="154.396" y2="277.616" gradientUnits="userSpaceOnUse">
<stop stop-color="#4FFF60"/>
<stop offset="1" stop-color="#00670A"/>
</linearGradient>
<linearGradient id="paint2_linear_67_82" x1="112" y1="192" x2="154.396" y2="312.616" gradientUnits="userSpaceOnUse">
<stop stop-color="#4FFF60"/>
<stop offset="1" stop-color="#00670A"/>
</linearGradient>
<linearGradient id="paint3_linear_67_82" x1="112" y1="227" x2="154.396" y2="347.616" gradientUnits="userSpaceOnUse">
<stop stop-color="#4FFF60"/>
<stop offset="1" stop-color="#00670A"/>
</linearGradient>
<linearGradient id="paint4_linear_67_82" x1="112" y1="262" x2="154.396" y2="382.616" gradientUnits="userSpaceOnUse">
<stop stop-color="#4FFF60"/>
<stop offset="1" stop-color="#00670A"/>
</linearGradient>
</defs>
</svg>
