<svg width="205" height="70" viewBox="0 0 205 70" fill="none" xmlns="http://www.w3.org/2000/svg">
<circle cx="35" cy="35" r="30" stroke="url(#paint0_linear_109_94)" stroke-width="10"/>
<path d="M37.834 44V25.8H53.512V44H50.964V27.386L51.588 28.062H39.758L40.408 27.386V44H37.834ZM64.6735 44.156C63.2868 44.156 62.0562 43.8527 60.9815 43.246C59.9068 42.6393 59.0575 41.8073 58.4335 40.75C57.8095 39.6753 57.4975 38.462 57.4975 37.11C57.4975 35.7407 57.8095 34.5273 58.4335 33.47C59.0575 32.4127 59.9068 31.5893 60.9815 31C62.0562 30.3933 63.2868 30.09 64.6735 30.09C66.0428 30.09 67.2648 30.3933 68.3395 31C69.4315 31.5893 70.2808 32.4127 70.8875 33.47C71.5115 34.51 71.8235 35.7233 71.8235 37.11C71.8235 38.4793 71.5115 39.6927 70.8875 40.75C70.2808 41.8073 69.4315 42.6393 68.3395 43.246C67.2648 43.8527 66.0428 44.156 64.6735 44.156ZM64.6735 41.972C65.5575 41.972 66.3462 41.7727 67.0395 41.374C67.7502 40.9753 68.3048 40.412 68.7035 39.684C69.1022 38.9387 69.3015 38.0807 69.3015 37.11C69.3015 36.122 69.1022 35.2727 68.7035 34.562C68.3048 33.834 67.7502 33.2707 67.0395 32.872C66.3462 32.4733 65.5575 32.274 64.6735 32.274C63.7895 32.274 63.0008 32.4733 62.3075 32.872C61.6142 33.2707 61.0595 33.834 60.6435 34.562C60.2275 35.2727 60.0195 36.122 60.0195 37.11C60.0195 38.0807 60.2275 38.9387 60.6435 39.684C61.0595 40.412 61.6142 40.9753 62.3075 41.374C63.0008 41.7727 63.7895 41.972 64.6735 41.972ZM84.1118 38.358C83.3838 38.7047 82.6298 38.982 81.8498 39.19C81.0871 39.3807 80.2984 39.476 79.4838 39.476C77.8198 39.476 76.5024 39.086 75.5318 38.306C74.5784 37.526 74.1018 36.3213 74.1018 34.692V30.22H76.5978V34.536C76.5978 35.524 76.9011 36.252 77.5078 36.72C78.1318 37.188 78.9638 37.422 80.0038 37.422C80.6624 37.422 81.3384 37.3353 82.0318 37.162C82.7424 36.9887 83.4358 36.746 84.1118 36.434V38.358ZM83.9298 44V30.22H86.4258V44H83.9298ZM97.4075 44.156C95.9342 44.156 94.6342 43.8527 93.5075 43.246C92.3982 42.6393 91.5315 41.8073 90.9075 40.75C90.3008 39.6927 89.9975 38.4793 89.9975 37.11C89.9975 35.7407 90.2922 34.5273 90.8815 33.47C91.4882 32.4127 92.3115 31.5893 93.3515 31C94.4088 30.3933 95.5962 30.09 96.9135 30.09C98.2482 30.09 99.4268 30.3847 100.45 30.974C101.472 31.5633 102.27 32.3953 102.842 33.47C103.431 34.5273 103.726 35.7667 103.726 37.188C103.726 37.292 103.717 37.4133 103.7 37.552C103.7 37.6907 103.691 37.8207 103.674 37.942H91.9475V36.148H102.374L101.36 36.772C101.377 35.888 101.195 35.0993 100.814 34.406C100.432 33.7127 99.9035 33.1753 99.2275 32.794C98.5688 32.3953 97.7975 32.196 96.9135 32.196C96.0468 32.196 95.2755 32.3953 94.5995 32.794C93.9235 33.1753 93.3948 33.7213 93.0135 34.432C92.6322 35.1253 92.4415 35.9227 92.4415 36.824V37.24C92.4415 38.1587 92.6495 38.982 93.0655 39.71C93.4988 40.4207 94.0968 40.9753 94.8595 41.374C95.6222 41.7727 96.4975 41.972 97.4855 41.972C98.3002 41.972 99.0368 41.8333 99.6955 41.556C100.372 41.2787 100.961 40.8627 101.464 40.308L102.842 41.92C102.218 42.648 101.438 43.2027 100.502 43.584C99.5828 43.9653 98.5515 44.156 97.4075 44.156ZM107.598 44V30.22H110.172L116.1 40.412H115.06L121.144 30.22H123.484V44H121.222V33.028L121.638 33.262L116.074 42.44H114.982L109.392 33.08L109.886 32.976V44H107.598ZM129.044 49.2C128.385 49.2 127.744 49.0873 127.12 48.862C126.496 48.654 125.958 48.342 125.508 47.926L126.574 46.054C126.92 46.3833 127.302 46.6347 127.718 46.808C128.134 46.9813 128.576 47.068 129.044 47.068C129.65 47.068 130.153 46.912 130.552 46.6C130.95 46.288 131.323 45.7333 131.67 44.936L132.528 43.038L132.788 42.726L138.196 30.22H140.64L133.958 45.378C133.559 46.3487 133.108 47.1113 132.606 47.666C132.12 48.2207 131.583 48.6107 130.994 48.836C130.404 49.0787 129.754 49.2 129.044 49.2ZM132.32 44.442L126.028 30.22H128.628L133.984 42.492L132.32 44.442ZM150.178 44V30.22H152.752L158.68 40.412H157.64L163.724 30.22H166.064V44H163.802V33.028L164.218 33.262L158.654 42.44H157.562L151.972 33.08L152.466 32.976V44H150.178ZM184.546 44V30.22H187.042V44H184.546ZM177.136 34.9C178.887 34.9173 180.213 35.316 181.114 36.096C182.033 36.876 182.492 37.9767 182.492 39.398C182.492 40.8887 181.989 42.0413 180.984 42.856C179.996 43.6533 178.575 44.0433 176.72 44.026L170.922 44V30.22H173.418V34.874L177.136 34.9ZM176.538 42.128C177.647 42.1453 178.497 41.92 179.086 41.452C179.675 40.984 179.97 40.2907 179.97 39.372C179.97 38.4707 179.675 37.812 179.086 37.396C178.514 36.98 177.665 36.7633 176.538 36.746L173.418 36.694V42.102L176.538 42.128ZM195.785 38.254C195.785 37.578 195.898 36.9887 196.123 36.486C196.349 35.9833 196.626 35.5327 196.955 35.134C197.302 34.7353 197.675 34.3713 198.073 34.042C198.472 33.6953 198.845 33.3573 199.191 33.028C199.538 32.6813 199.815 32.3173 200.023 31.936C200.249 31.5547 200.361 31.1127 200.361 30.61C200.361 29.778 200.032 29.102 199.373 28.582C198.715 28.062 197.805 27.802 196.643 27.802C195.603 27.802 194.702 27.9753 193.939 28.322C193.177 28.6687 192.527 29.18 191.989 29.856L190.091 28.504C190.819 27.5853 191.747 26.8747 192.873 26.372C194 25.852 195.317 25.592 196.825 25.592C198.073 25.592 199.157 25.7827 200.075 26.164C200.994 26.528 201.705 27.0567 202.207 27.75C202.727 28.426 202.987 29.2493 202.987 30.22C202.987 30.948 202.875 31.572 202.649 32.092C202.424 32.612 202.138 33.0713 201.791 33.47C201.445 33.8687 201.072 34.2413 200.673 34.588C200.292 34.9347 199.928 35.2813 199.581 35.628C199.235 35.9747 198.949 36.356 198.723 36.772C198.498 37.188 198.385 37.682 198.385 38.254H195.785ZM197.111 44.156C196.626 44.156 196.219 43.9913 195.889 43.662C195.577 43.3327 195.421 42.9427 195.421 42.492C195.421 42.0067 195.577 41.608 195.889 41.296C196.219 40.984 196.626 40.828 197.111 40.828C197.597 40.828 197.995 40.984 198.307 41.296C198.619 41.608 198.775 42.0067 198.775 42.492C198.775 42.9427 198.619 43.3327 198.307 43.662C197.995 43.9913 197.597 44.156 197.111 44.156Z" fill="white"/>
<defs>
<linearGradient id="paint0_linear_109_94" x1="35" y1="0" x2="35" y2="70" gradientUnits="userSpaceOnUse">
<stop stop-color="#49FF7C"/>
<stop offset="0.927083" stop-color="white" stop-opacity="0"/>
</linearGradient>
</defs>
</svg>
