<svg width="360" height="206" viewBox="0 0 360 206" fill="none" xmlns="http://www.w3.org/2000/svg">
<rect x="11" y="11" width="338" height="184" stroke="#4E7CE7" stroke-width="2"/>
<rect width="20" height="20" rx="2" fill="white"/>
<rect x="340" width="20" height="20" rx="2" fill="white"/>
<rect y="186" width="20" height="20" rx="2" fill="white"/>
<rect x="340" y="186" width="20" height="20" rx="2" fill="white"/>
<path d="M170 140L178.318 160L181.271 151.306L190 148.318L170 140Z" fill="white"/>
<g filter="url(#filter0_f_63_34)">
<rect x="196" y="150" width="61" height="22" fill="#FF9900"/>
</g>
<rect x="196" y="150" width="61" height="22" rx="3" fill="#FFB342"/>
<path d="M207.05 165V158H210C210.747 158 211.403 158.147 211.97 158.44C212.543 158.733 212.987 159.143 213.3 159.67C213.62 160.197 213.78 160.807 213.78 161.5C213.78 162.193 213.62 162.803 213.3 163.33C212.987 163.857 212.543 164.267 211.97 164.56C211.403 164.853 210.747 165 210 165H207.05ZM208.05 164.13H209.94C210.52 164.13 211.02 164.02 211.44 163.8C211.867 163.58 212.197 163.273 212.43 162.88C212.663 162.48 212.78 162.02 212.78 161.5C212.78 160.973 212.663 160.513 212.43 160.12C212.197 159.727 211.867 159.42 211.44 159.2C211.02 158.98 210.52 158.87 209.94 158.87H208.05V164.13ZM216.722 161.02H220.322V161.87H216.722V161.02ZM216.812 164.13H220.892V165H215.812V158H220.752V158.87H216.812V164.13ZM223.011 165V158H226.151C226.958 158 227.578 158.163 228.011 158.49C228.444 158.81 228.661 159.25 228.661 159.81C228.661 160.19 228.574 160.51 228.401 160.77C228.234 161.03 228.008 161.23 227.721 161.37C227.434 161.51 227.124 161.58 226.791 161.58L226.971 161.28C227.371 161.28 227.724 161.35 228.031 161.49C228.338 161.63 228.581 161.837 228.761 162.11C228.941 162.377 229.031 162.71 229.031 163.11C229.031 163.71 228.804 164.177 228.351 164.51C227.904 164.837 227.238 165 226.351 165H223.011ZM224.011 164.19H226.311C226.864 164.19 227.288 164.097 227.581 163.91C227.874 163.723 228.021 163.43 228.021 163.03C228.021 162.623 227.874 162.327 227.581 162.14C227.288 161.953 226.864 161.86 226.311 161.86H223.921V161.05H226.061C226.568 161.05 226.961 160.957 227.241 160.77C227.521 160.583 227.661 160.303 227.661 159.93C227.661 159.557 227.521 159.277 227.241 159.09C226.961 158.903 226.568 158.81 226.061 158.81H224.011V164.19ZM233.979 165.08C233.059 165.08 232.336 164.817 231.809 164.29C231.283 163.763 231.019 162.993 231.019 161.98V158H232.019V161.94C232.019 162.72 232.189 163.29 232.529 163.65C232.876 164.01 233.363 164.19 233.989 164.19C234.623 164.19 235.109 164.01 235.449 163.65C235.796 163.29 235.969 162.72 235.969 161.94V158H236.939V161.98C236.939 162.993 236.676 163.763 236.149 164.29C235.629 164.817 234.906 165.08 233.979 165.08ZM242.649 165.08C242.109 165.08 241.613 164.993 241.159 164.82C240.706 164.64 240.313 164.39 239.979 164.07C239.646 163.743 239.386 163.363 239.199 162.93C239.013 162.497 238.919 162.02 238.919 161.5C238.919 160.98 239.013 160.503 239.199 160.07C239.386 159.637 239.646 159.26 239.979 158.94C240.319 158.613 240.716 158.363 241.169 158.19C241.623 158.01 242.123 157.92 242.669 157.92C243.223 157.92 243.729 158.01 244.189 158.19C244.649 158.37 245.039 158.64 245.359 159L244.739 159.62C244.453 159.34 244.139 159.137 243.799 159.01C243.466 158.877 243.103 158.81 242.709 158.81C242.309 158.81 241.936 158.877 241.589 159.01C241.249 159.143 240.953 159.33 240.699 159.57C240.453 159.81 240.259 160.097 240.119 160.43C239.986 160.757 239.919 161.113 239.919 161.5C239.919 161.88 239.986 162.237 240.119 162.57C240.259 162.897 240.453 163.183 240.699 163.43C240.953 163.67 241.249 163.857 241.589 163.99C241.929 164.123 242.299 164.19 242.699 164.19C243.073 164.19 243.429 164.133 243.769 164.02C244.116 163.9 244.436 163.703 244.729 163.43L245.299 164.19C244.953 164.483 244.546 164.707 244.079 164.86C243.619 165.007 243.143 165.08 242.649 165.08ZM244.339 164.06V161.46H245.299V164.19L244.339 164.06Z" fill="#252525"/>
<path d="M58.48 118.3C56.16 118.3 53.54 118.1 50.62 117.7C49.02 117.5 47.92 117.08 47.32 116.44C46.72 115.8 46.46 114.76 46.54 113.32C46.82 109.36 47.48 104.48 48.52 98.68C49.56 92.84 50.82 87.22 52.3 81.82C52.58 80.82 53.14 80.12 53.98 79.72C54.82 79.32 55.92 79.12 57.28 79.12C59.72 79.12 60.94 79.8 60.94 81.16C60.94 81.72 60.82 82.36 60.58 83.08C59.54 86.28 58.5 90.58 57.46 95.98C56.42 101.34 55.68 106.46 55.24 111.34C56.44 111.46 57.8 111.52 59.32 111.52C66.32 111.52 71.54 109.4 74.98 105.16C78.46 100.92 80.2 95.26 80.2 88.18C80.2 83.42 78.84 79.74 76.12 77.14C73.4 74.54 69.56 73.24 64.6 73.24C61.4 73.24 58.22 73.74 55.06 74.74C51.94 75.74 49.12 77.06 46.6 78.7C46.08 79.06 45.52 79.24 44.92 79.24C44.24 79.24 43.7 78.96 43.3 78.4C42.9 77.8 42.7 77.08 42.7 76.24C42.7 75.28 42.86 74.5 43.18 73.9C43.5 73.26 44.04 72.68 44.8 72.16C47.56 70.28 50.8 68.86 54.52 67.9C58.24 66.9 61.82 66.4 65.26 66.4C70.14 66.4 74.36 67.26 77.92 68.98C81.48 70.66 84.22 73.14 86.14 76.42C88.06 79.7 89.02 83.66 89.02 88.3C89.02 94.34 87.82 99.62 85.42 104.14C83.02 108.62 79.52 112.1 74.92 114.58C70.32 117.06 64.84 118.3 58.48 118.3ZM140.256 107.08C140.856 106.84 141.356 106.72 141.756 106.72C142.396 106.72 142.876 106.96 143.196 107.44C143.516 107.92 143.676 108.54 143.676 109.3C143.676 110.5 143.376 111.52 142.776 112.36C142.216 113.2 141.236 113.96 139.836 114.64C137.476 115.76 134.416 116.66 130.656 117.34C126.896 117.98 123.196 118.3 119.556 118.3C114.516 118.3 110.296 117.74 106.896 116.62C103.496 115.46 100.956 113.88 99.2762 111.88C97.6362 109.88 96.8162 107.62 96.8162 105.1C96.8162 101.66 97.9162 98.74 100.116 96.34C102.356 93.9 105.636 92.14 109.956 91.06C107.596 90.38 105.776 89.18 104.496 87.46C103.256 85.74 102.636 83.82 102.636 81.7C102.636 78.82 103.536 76.28 105.336 74.08C107.176 71.84 109.636 70.12 112.716 68.92C115.796 67.72 119.176 67.12 122.856 67.12C127.816 67.12 131.536 68.2 134.016 70.36C136.496 72.48 137.736 75.24 137.736 78.64C137.736 81 137.296 82.92 136.416 84.4C135.576 85.84 134.356 86.56 132.756 86.56C131.636 86.56 130.756 86.32 130.116 85.84C129.476 85.32 129.156 84.56 129.156 83.56C129.156 82.88 129.256 82.14 129.456 81.34C129.656 80.02 129.756 79.12 129.756 78.64C129.756 77.2 129.216 76.04 128.136 75.16C127.056 74.24 125.256 73.78 122.736 73.78C119.336 73.78 116.616 74.5 114.576 75.94C112.536 77.38 111.516 79.32 111.516 81.76C111.516 83.64 112.276 85.2 113.796 86.44C115.356 87.64 117.876 88.3 121.356 88.42C122.236 88.46 122.856 88.66 123.216 89.02C123.576 89.38 123.756 89.98 123.756 90.82C123.756 93.46 122.556 94.8 120.156 94.84C116.836 94.92 114.076 95.38 111.876 96.22C109.716 97.06 108.136 98.14 107.136 99.46C106.176 100.74 105.696 102.12 105.696 103.6C105.696 106.08 106.856 107.96 109.176 109.24C111.496 110.48 115.176 111.1 120.216 111.1C123.536 111.1 127.036 110.72 130.716 109.96C134.436 109.16 137.616 108.2 140.256 107.08ZM192.969 79.6C192.969 83 191.769 85.94 189.369 88.42C186.969 90.86 183.469 92.62 178.869 93.7C181.349 94.38 183.229 95.5 184.509 97.06C185.789 98.58 186.429 100.34 186.429 102.34C186.429 105.5 185.429 108.24 183.429 110.56C181.469 112.88 178.589 114.68 174.789 115.96C170.989 117.2 166.409 117.82 161.049 117.82C159.049 117.82 157.449 117.76 156.249 117.64C156.209 118.76 155.729 119.6 154.809 120.16C153.889 120.72 152.709 121 151.269 121C149.829 121 148.829 120.68 148.269 120.04C147.749 119.4 147.529 118.46 147.609 117.22C147.969 111.62 148.669 105.76 149.709 99.64C150.749 93.48 152.069 87.54 153.669 81.82C153.949 80.82 154.509 80.12 155.349 79.72C156.189 79.32 157.289 79.12 158.649 79.12C161.089 79.12 162.309 79.8 162.309 81.16C162.309 81.72 162.189 82.36 161.949 83.08C160.909 86.2 159.869 90.44 158.829 95.8C157.789 101.12 157.049 106.2 156.609 111.04C158.529 111.2 160.089 111.28 161.289 111.28C166.889 111.28 170.989 110.48 173.589 108.88C176.229 107.24 177.549 105.16 177.549 102.64C177.549 100.88 176.789 99.4 175.269 98.2C173.789 97 171.289 96.34 167.769 96.22C166.969 96.18 166.409 95.98 166.089 95.62C165.769 95.26 165.609 94.68 165.609 93.88C165.609 92.72 165.849 91.78 166.329 91.06C166.809 90.34 167.689 89.96 168.969 89.92C171.809 89.84 174.369 89.42 176.649 88.66C178.969 87.9 180.789 86.84 182.109 85.48C183.429 84.08 184.089 82.46 184.089 80.62C184.089 78.3 182.949 76.48 180.669 75.16C178.389 73.8 174.889 73.12 170.169 73.12C165.889 73.12 161.749 73.68 157.749 74.8C153.749 75.88 150.349 77.26 147.549 78.94C146.269 79.7 145.189 80.08 144.309 80.08C143.589 80.08 143.029 79.84 142.629 79.36C142.269 78.84 142.089 78.2 142.089 77.44C142.089 76.44 142.289 75.58 142.689 74.86C143.129 74.14 144.149 73.32 145.749 72.4C149.109 70.48 153.049 68.98 157.569 67.9C162.089 66.82 166.709 66.28 171.429 66.28C178.669 66.28 184.069 67.5 187.629 69.94C191.189 72.38 192.969 75.6 192.969 79.6ZM215.238 118.3C211.878 118.3 209.338 117.38 207.618 115.54C205.898 113.66 205.038 111.16 205.038 108.04C205.038 106.28 205.298 104.14 205.818 101.62L209.538 84.46C209.618 84.14 209.798 83.26 210.078 81.82C210.398 80.38 210.558 78.82 210.558 77.14C210.558 76.18 210.358 75.46 209.958 74.98C209.598 74.5 209.098 74.26 208.458 74.26C207.258 74.26 205.858 74.84 204.258 76C202.658 77.12 200.978 78.86 199.218 81.22C198.658 81.98 198.038 82.36 197.358 82.36C196.798 82.36 196.298 82.1 195.858 81.58C195.458 81.02 195.258 80.4 195.258 79.72C195.258 78.48 195.818 77.08 196.938 75.52C201.018 69.92 205.798 67.12 211.278 67.12C213.718 67.12 215.618 67.86 216.978 69.34C218.378 70.82 219.078 73 219.078 75.88C219.078 77.92 218.938 79.8 218.658 81.52C218.378 83.24 217.898 85.58 217.218 88.54L214.758 99.52C214.678 99.88 214.538 100.52 214.338 101.44C214.138 102.36 213.978 103.24 213.858 104.08C213.738 104.88 213.678 105.68 213.678 106.48C213.678 107.76 214.038 108.78 214.758 109.54C215.478 110.3 216.498 110.68 217.818 110.68C220.218 110.68 222.638 109.4 225.078 106.84C227.558 104.28 229.838 100.16 231.918 94.48C234.038 88.76 235.678 81.46 236.838 72.58C237.118 70.54 237.518 69.12 238.038 68.32C238.598 67.52 239.658 67.12 241.218 67.12C242.618 67.12 243.658 67.54 244.338 68.38C245.018 69.22 245.358 70.58 245.358 72.46C245.358 73.54 245.218 74.96 244.938 76.72C244.698 78.48 244.318 80.94 243.798 84.1C242.718 90.22 241.858 95.84 241.218 100.96C240.898 103.28 240.738 105 240.738 106.12C240.738 107.76 241.098 109.02 241.818 109.9C242.578 110.74 243.578 111.16 244.818 111.16C246.138 111.16 247.418 110.72 248.658 109.84C249.938 108.96 251.438 107.5 253.158 105.46C253.638 104.9 254.178 104.62 254.778 104.62C255.298 104.62 255.698 104.86 255.978 105.34C256.298 105.82 256.458 106.48 256.458 107.32C256.458 108.88 256.078 110.12 255.318 111.04C253.238 113.56 251.178 115.4 249.138 116.56C247.098 117.72 244.958 118.3 242.718 118.3C239.398 118.3 236.858 117.46 235.098 115.78C233.338 114.06 232.458 111.84 232.458 109.12C232.458 107.6 232.778 104.64 233.418 100.24C231.418 106.12 228.878 110.6 225.798 113.68C222.758 116.76 219.238 118.3 215.238 118.3ZM307.017 104.74C307.537 104.74 307.937 105 308.217 105.52C308.537 106 308.697 106.62 308.697 107.38C308.697 108.3 308.557 109.02 308.277 109.54C307.997 110.06 307.557 110.52 306.957 110.92C304.597 112.48 300.837 115.04 295.677 118.6C294.117 126.88 292.097 133.4 289.617 138.16C287.137 142.92 283.997 145.3 280.197 145.3C278.157 145.3 276.497 144.66 275.217 143.38C273.937 142.14 273.297 140.5 273.297 138.46C273.297 136.58 273.717 134.68 274.557 132.76C275.397 130.84 276.957 128.62 279.237 126.1C281.557 123.58 284.817 120.7 289.017 117.46L289.197 116.32C286.037 117.64 282.937 118.3 279.897 118.3C275.417 118.3 271.477 117.44 268.077 115.72C264.677 113.96 262.037 111.48 260.157 108.28C258.277 105.08 257.337 101.36 257.337 97.12C257.337 91.2 258.457 85.98 260.697 81.46C262.937 76.9 266.017 73.38 269.937 70.9C273.897 68.38 278.317 67.12 283.197 67.12C287.877 67.12 291.377 68.22 293.697 70.42C296.057 72.58 297.237 75.46 297.237 79.06C297.237 81.42 296.797 83.32 295.917 84.76C295.077 86.16 293.857 86.86 292.257 86.86C291.177 86.86 290.297 86.6 289.617 86.08C288.977 85.56 288.657 84.84 288.657 83.92C288.657 83.52 288.737 82.84 288.897 81.88C289.137 80.76 289.257 79.88 289.257 79.24C289.257 77.56 288.737 76.26 287.697 75.34C286.697 74.42 284.997 73.96 282.597 73.96C279.677 73.96 276.957 74.8 274.437 76.48C271.957 78.16 269.957 80.68 268.437 84.04C266.917 87.36 266.157 91.36 266.157 96.04C266.157 100.84 267.457 104.56 270.057 107.2C272.697 109.8 276.497 111.1 281.457 111.1C284.217 111.1 287.097 110.48 290.097 109.24L290.937 101.92H284.817C283.697 101.92 282.837 101.66 282.237 101.14C281.637 100.58 281.337 99.68 281.337 98.44C281.337 97.32 281.637 96.44 282.237 95.8C282.837 95.16 283.637 94.84 284.637 94.84H295.857C296.737 94.84 297.457 95.14 298.017 95.74C298.617 96.3 298.857 97.12 298.737 98.2C298.617 99.48 298.217 102.38 297.537 106.9L296.877 111.46C300.077 109.06 302.997 106.98 305.637 105.22C306.157 104.9 306.617 104.74 307.017 104.74ZM280.857 139.48C281.897 139.48 283.037 138.3 284.277 135.94C285.517 133.58 286.677 129.78 287.757 124.54C284.717 127.14 282.517 129.48 281.157 131.56C279.837 133.68 279.177 135.54 279.177 137.14C279.177 138.7 279.737 139.48 280.857 139.48Z" fill="white"/>
<path d="M63.22 145.31C63.48 145.31 63.68 145.43 63.82 145.67C63.98 145.91 64.06 146.24 64.06 146.66C64.06 147.44 63.87 148.06 63.49 148.52C62.37 149.86 61.28 150.8 60.22 151.34C59.18 151.88 57.92 152.15 56.44 152.15C55.4 152.15 54.44 152.02 53.56 151.76C52.68 151.5 51.61 151.11 50.35 150.59C49.21 150.09 48.11 149.68 47.05 149.36C46.03 151.22 44.5 152.15 42.46 152.15C41.34 152.15 40.45 151.9 39.79 151.4C39.11 150.88 38.77 150.22 38.77 149.42C38.77 148.44 39.24 147.63 40.18 146.99C41.12 146.33 42.37 146 43.93 146H44.32L44.86 137.27C44.98 135.27 45.34 133.62 45.94 132.32C46.54 131.02 47.37 129.91 48.43 128.99C49.35 128.19 50.4 127.59 51.58 127.19C52.76 126.77 54.01 126.56 55.33 126.56C57.49 126.56 59.15 127.12 60.31 128.24C61.47 129.36 62.05 130.82 62.05 132.62C62.05 133.84 61.83 134.83 61.39 135.59C60.95 136.33 60.34 136.7 59.56 136.7C59 136.7 58.56 136.57 58.24 136.31C57.92 136.03 57.76 135.64 57.76 135.14C57.76 134.96 57.8 134.63 57.88 134.15C58 133.59 58.06 133.09 58.06 132.65C58.06 131.81 57.81 131.15 57.31 130.67C56.83 130.17 56.09 129.92 55.09 129.92C53.33 129.92 51.97 130.5 51.01 131.66C50.05 132.8 49.44 134.6 49.18 137.06L48.49 143.87C48.39 144.83 48.26 145.66 48.1 146.36C49.38 146.58 50.98 146.93 52.9 147.41C54.02 147.69 54.88 147.89 55.48 148.01C56.08 148.13 56.61 148.19 57.07 148.19C58.23 148.19 59.22 148 60.04 147.62C60.88 147.22 61.67 146.59 62.41 145.73C62.65 145.45 62.92 145.31 63.22 145.31ZM71.5855 152.15C70.2055 152.15 68.9555 151.81 67.8355 151.13C66.7355 150.45 65.8655 149.47 65.2255 148.19C64.5855 146.89 64.2655 145.36 64.2655 143.6C64.2655 140.56 64.9155 137.75 66.2155 135.17C67.5155 132.57 69.4355 130.49 71.9755 128.93C74.5155 127.35 77.5655 126.56 81.1255 126.56C82.0455 126.56 83.0255 126.63 84.0655 126.77C85.1255 126.91 86.0855 127.12 86.9455 127.4C87.5055 127.56 87.7855 127.96 87.7855 128.6C87.7855 129.12 87.5855 129.61 87.1855 130.07C86.8055 130.53 86.3555 130.76 85.8355 130.76C85.6755 130.76 85.5555 130.75 85.4755 130.73C84.4355 130.49 83.5455 130.32 82.8055 130.22C82.0655 130.1 81.2855 130.04 80.4655 130.04C77.9255 130.04 75.7655 130.66 73.9855 131.9C72.2055 133.12 70.8755 134.74 69.9955 136.76C69.1155 138.78 68.6755 140.96 68.6755 143.3C68.6755 145 69.0055 146.32 69.6655 147.26C70.3455 148.18 71.2255 148.64 72.3055 148.64C73.5255 148.64 74.5955 148.14 75.5155 147.14C76.4355 146.14 77.2755 144.52 78.0355 142.28C78.7955 140.04 79.5455 137 80.2855 133.16C80.4055 132.6 80.6455 132.22 81.0055 132.02C81.3655 131.82 81.8455 131.72 82.4455 131.72C83.8655 131.72 84.5755 132.18 84.5755 133.1C84.5755 133.26 84.5455 133.46 84.4855 133.7C83.9655 135.64 83.4855 137.79 83.0455 140.15C82.6255 142.49 82.4155 144.27 82.4155 145.49C82.4155 146.57 82.5755 147.36 82.8955 147.86C83.2155 148.34 83.7055 148.58 84.3655 148.58C85.0055 148.58 85.6155 148.37 86.1955 147.95C86.7755 147.51 87.5055 146.77 88.3855 145.73C88.6255 145.45 88.8955 145.31 89.1955 145.31C89.4555 145.31 89.6555 145.43 89.7955 145.67C89.9555 145.91 90.0355 146.24 90.0355 146.66C90.0355 147.44 89.8455 148.06 89.4655 148.52C88.4855 149.7 87.5255 150.6 86.5855 151.22C85.6455 151.84 84.4955 152.15 83.1355 152.15C81.7355 152.15 80.6055 151.75 79.7455 150.95C78.8855 150.13 78.3455 148.98 78.1255 147.5C76.6455 150.6 74.4655 152.15 71.5855 152.15ZM115.195 132.8C115.195 134.5 114.595 135.97 113.395 137.21C112.195 138.43 110.445 139.31 108.145 139.85C109.385 140.19 110.325 140.75 110.965 141.53C111.605 142.29 111.925 143.17 111.925 144.17C111.925 145.75 111.425 147.12 110.425 148.28C109.445 149.44 108.005 150.34 106.105 150.98C104.205 151.6 101.915 151.91 99.2355 151.91C98.2355 151.91 97.4355 151.88 96.8355 151.82C96.8155 152.38 96.5755 152.8 96.1155 153.08C95.6555 153.36 95.0655 153.5 94.3455 153.5C93.6255 153.5 93.1255 153.34 92.8455 153.02C92.5855 152.7 92.4755 152.23 92.5155 151.61C92.6955 148.81 93.0455 145.88 93.5655 142.82C94.0855 139.74 94.7455 136.77 95.5455 133.91C95.6855 133.41 95.9655 133.06 96.3855 132.86C96.8055 132.66 97.3555 132.56 98.0355 132.56C99.2555 132.56 99.8655 132.9 99.8655 133.58C99.8655 133.86 99.8055 134.18 99.6855 134.54C99.1655 136.1 98.6455 138.22 98.1255 140.9C97.6055 143.56 97.2355 146.1 97.0155 148.52C97.9755 148.6 98.7555 148.64 99.3555 148.64C102.155 148.64 104.205 148.24 105.505 147.44C106.825 146.62 107.485 145.58 107.485 144.32C107.485 143.44 107.105 142.7 106.345 142.1C105.605 141.5 104.355 141.17 102.595 141.11C102.195 141.09 101.915 140.99 101.755 140.81C101.595 140.63 101.515 140.34 101.515 139.94C101.515 139.36 101.635 138.89 101.875 138.53C102.115 138.17 102.555 137.98 103.195 137.96C104.615 137.92 105.895 137.71 107.035 137.33C108.195 136.95 109.105 136.42 109.765 135.74C110.425 135.04 110.755 134.23 110.755 133.31C110.755 132.15 110.185 131.24 109.045 130.58C107.905 129.9 106.155 129.56 103.795 129.56C101.655 129.56 99.5855 129.84 97.5855 130.4C95.5855 130.94 93.8855 131.63 92.4855 132.47C91.8455 132.85 91.3055 133.04 90.8655 133.04C90.5055 133.04 90.2255 132.92 90.0255 132.68C89.8455 132.42 89.7555 132.1 89.7555 131.72C89.7555 131.22 89.8555 130.79 90.0555 130.43C90.2755 130.07 90.7855 129.66 91.5855 129.2C93.2655 128.24 95.2355 127.49 97.4955 126.95C99.7555 126.41 102.065 126.14 104.425 126.14C108.045 126.14 110.745 126.75 112.525 127.97C114.305 129.19 115.195 130.8 115.195 132.8ZM126.18 152.24C123.52 152.24 121.39 151.74 119.79 150.74C118.19 149.72 117.39 148.17 117.39 146.09C117.39 144.99 117.58 144.15 117.96 143.57C118.34 142.99 118.9 142.7 119.64 142.7C120.18 142.7 120.62 142.84 120.96 143.12C121.3 143.4 121.47 143.76 121.47 144.2C121.47 144.6 121.44 144.95 121.38 145.25C121.38 145.33 121.36 145.47 121.32 145.67C121.3 145.87 121.29 146.08 121.29 146.3C121.29 147.2 121.74 147.87 122.64 148.31C123.56 148.75 124.84 148.97 126.48 148.97C128.18 148.97 129.51 148.67 130.47 148.07C131.43 147.45 131.91 146.59 131.91 145.49C131.91 144.81 131.69 144.23 131.25 143.75C130.81 143.25 130.26 142.84 129.6 142.52C128.94 142.18 128.01 141.77 126.81 141.29C125.27 140.69 124.01 140.12 123.03 139.58C122.07 139.04 121.24 138.31 120.54 137.39C119.86 136.45 119.52 135.29 119.52 133.91C119.52 132.47 119.9 131.19 120.66 130.07C121.44 128.95 122.55 128.08 123.99 127.46C125.45 126.84 127.16 126.53 129.12 126.53C130.58 126.53 131.92 126.75 133.14 127.19C134.36 127.61 135.33 128.26 136.05 129.14C136.79 130.02 137.16 131.1 137.16 132.38C137.16 133.64 136.97 134.59 136.59 135.23C136.21 135.87 135.65 136.19 134.91 136.19C134.39 136.19 133.95 136.03 133.59 135.71C133.25 135.39 133.08 135.01 133.08 134.57C133.08 134.19 133.11 133.84 133.17 133.52C133.23 132.92 133.26 132.54 133.26 132.38C133.26 131.54 132.85 130.9 132.03 130.46C131.21 130.02 130.19 129.8 128.97 129.8C127.25 129.8 125.93 130.12 125.01 130.76C124.11 131.38 123.66 132.26 123.66 133.4C123.66 134.16 123.89 134.81 124.35 135.35C124.83 135.89 125.42 136.34 126.12 136.7C126.82 137.06 127.8 137.49 129.06 137.99C130.58 138.61 131.8 139.17 132.72 139.67C133.64 140.17 134.42 140.85 135.06 141.71C135.72 142.57 136.05 143.63 136.05 144.89C136.05 147.25 135.15 149.07 133.35 150.35C131.57 151.61 129.18 152.24 126.18 152.24Z" fill="white"/>
<defs>
<filter id="filter0_f_63_34" x="186" y="140" width="81" height="42" filterUnits="userSpaceOnUse" color-interpolation-filters="sRGB">
<feFlood flood-opacity="0" result="BackgroundImageFix"/>
<feBlend mode="normal" in="SourceGraphic" in2="BackgroundImageFix" result="shape"/>
<feGaussianBlur stdDeviation="5" result="effect1_foregroundBlur_63_34"/>
</filter>
</defs>
</svg>
